<svg xmlns="http://www.w3.org/2000/svg" width="122.74" height="123.365" viewBox="0 0 122.74 123.365"><circle cx="61.057" cy="61.683" r="61.683" fill="#EC6D6E"/><path d="M76.184 61.683L86.75 51.135c4.228-4.222 4.234-11.074.012-15.303-4.222-4.23-11.074-4.235-15.303-.013L60.876 46.382 50.657 36.18c-4.23-4.222-11.082-4.217-15.304.013-4.222 4.23-4.217 11.08.013 15.303L45.57 61.683 35.366 71.87c-4.23 4.222-4.235 11.074-.013 15.303 4.222 4.23 11.074 4.235 15.303.013l10.22-10.203 10.582 10.564c4.23 4.222 11.08 4.217 15.303-.013 4.223-4.23 4.218-11.08-.012-15.303L76.184 61.684z" fill="#fff"/></svg>