<svg xmlns="http://www.w3.org/2000/svg" width="106.571" height="106.57" viewBox="0 0 106.571 106.57"><path d="M53.208 32.83L38.392 61.175v.463c0 4.292 1.466 7.936 4.4 10.93 2.935 2.997 6.41 4.495 10.424 4.495 2.563 0 4.902-.587 7.018-1.76 2.115-1.174 3.968-2.98 5.56-5.42 1.59-2.44 2.385-5.19 2.385-8.246v-.52l-14.6-28.29h-.372z" fill="none"/><path d="M77.35 25.762c-.402-.355-1.065-.533-1.992-.533h-14.36c-.926 0-1.59.177-1.992.532-.402.355-.602.827-.602 1.413 0 .587.2 1.058.602 1.413.4.355 1.065.533 1.992.533h7.18v21.305l-11.05-21.487h-7.28L38.393 50.843V29.12h7.18c.926 0 1.59-.177 1.992-.533.4-.355.602-.826.602-1.413 0-.586-.2-1.058-.602-1.413-.402-.354-1.065-.532-1.992-.532h-14.36c-.926 0-1.575.155-1.946.463-.433.403-.648.897-.648 1.483 0 .587.2 1.058.602 1.413.4.355 1.065.533 1.992.533h3.29v32.519c0 1.923.26 3.76.766 5.513.47 1.624 1.153 3.176 2.058 4.654 1.883 3.073 4.17 5.367 6.856 6.88 2.687 1.512 5.76 2.27 9.218 2.27 5.157 0 9.558-1.854 13.202-5.56 2.318-2.358 3.896-5.073 4.74-8.143.48-1.756.726-3.626.726-5.615V29.12h3.29c.925 0 1.59-.177 1.99-.533.402-.355.603-.826.603-1.413.002-.586-.2-1.057-.6-1.412zM68.178 61.64c0 3.056-.795 5.805-2.386 8.244-1.59 2.44-3.444 4.247-5.56 5.42-2.115 1.174-4.454 1.76-7.017 1.76-4.015 0-7.49-1.497-10.423-4.493-2.934-2.994-4.4-6.64-4.4-10.93v-.464l14.815-28.348h.373L68.177 61.12v.52zM89.777 78.353c-.27-.324-.61-.556-1.027-.695-.414-.14-1.098-.21-2.053-.21h-4.043L74.11 61.114v3.92c0 1.79-.228 3.503-.668 5.145l3.8 7.27H29.326l3.8-7.27c-.44-1.642-.668-3.355-.668-5.145v-3.92L23.915 77.45h-4.043c-.954 0-1.64.07-2.053.21-.416.138-.758.37-1.028.694-.27.324-.404.672-.404 1.042s.134.718.404 1.042c.27.324.61.556 1.027.695.413.14 1.097.21 2.052.21h66.825c.953 0 1.638-.07 2.052-.21.415-.14.757-.37 1.027-.695.27-.324.403-.672.403-1.042s-.136-.72-.406-1.043zM53.285 106.57C23.905 106.57 0 82.667 0 53.285S23.904 0 53.285 0s53.286 23.904 53.286 53.285-23.903 53.285-53.285 53.285zm0-99.57C27.765 7 7 27.764 7 53.285 7 78.805 27.764 99.57 53.285 99.57c25.522 0 46.286-20.764 46.286-46.285C99.57 27.765 78.808 7 53.286 7z" fill="#fff"/></svg>