<svg xmlns="http://www.w3.org/2000/svg" width="547.402" height="257.875" viewBox="0 0 547.402 257.875"><g fill="#C9CACA"><path d="M62.274 246.22c-.21-.624-.39-1.43-.547-2.42-.053-.105-.078-.183-.078-.235 1.82-2.76 3.202-5.754 4.14-8.984l2.188.548c-.574 1.562-1.172 3.074-1.797 4.53v13.595h-2.108v-9.766c-.575.99-1.173 1.902-1.798 2.734zm16.875-3.67c-.106 0-.262-.052-.47-.157-.73-.156-1.25-.26-1.562-.312l1.094-2.81h-7.188c-.574 1.198-1.303 2.448-2.188 3.75-.47-.47-1.016-.94-1.64-1.407 1.56-2.082 2.707-4.375 3.437-6.875l2.188.312c-.31.834-.624 1.59-.937 2.266h8.438v1.875l-1.17 3.36zm-10 7.89c-.522-.26-1.173-.547-1.954-.86.833-1.612 1.744-3.774 2.734-6.483l1.875.625c-.625 1.824-1.51 4.062-2.656 6.718zm1.015 2.656c-.105-.73-.234-1.406-.39-2.03h2.03c.833.05 1.223-.313 1.172-1.095v-9.296h2.11v9.766c.05 1.72-.782 2.578-2.5 2.578-.21 0-.6.025-1.173.078h-1.25zm8.515-2.734c-.053-.207-.156-.494-.312-.86-.938-2.5-1.693-4.4-2.266-5.702l1.953-.625c.73 1.824 1.614 3.984 2.656 6.484l-2.03.702zM84.43 253.018v-15.312h2.11c.155-.572.363-1.354.624-2.344.05-.312.104-.547.156-.703l2.188.31c-.21.94-.47 1.85-.78 2.735h3.358v15.234h-1.953v-1.407H86.46v1.484h-2.03zm2.032-13.36v4.063h3.672v-4.06h-3.672zm0 6.016v4.062h3.672v-4.062h-3.672zm8.515 7.266c-.105-.78-.234-1.434-.39-1.953h1.405c.676.053 1.197.078 1.562.078 1.406 0 2.11-.676 2.11-2.03.05-.833.103-2.605.155-5.313.05-1.926.077-3.28.077-4.062H95.6c-.47 1.043-.938 2.006-1.406 2.89-.105-.05-.26-.155-.47-.31-.26-.157-.702-.392-1.327-.704 1.197-2.188 2.135-4.48 2.812-6.875l2.108.47c-.053.21-.156.496-.312.86-.21.73-.417 1.302-.625 1.718h5.626c-.105 5.678-.21 9.584-.312 11.72.05 2.343-1.068 3.487-3.36 3.437-1.04.048-2.16.075-3.357.075zm1.64-5.234c-.885-1.354-1.85-2.734-2.89-4.14l1.64-1.017c.94 1.093 1.954 2.42 3.048 3.983l-1.797 1.173zM105.883 240.206v-1.875h2.266v-3.67h1.952v3.67h1.875v1.876h-1.875v1.797c.73.625 1.51 1.328 2.344 2.11l-1.094 1.56-1.25-1.405v9.062h-1.953v-8.984c-.782 2.03-1.46 3.516-2.032 4.453-.053-.26-.156-.704-.312-1.33-.105-.624-.21-1.065-.312-1.327 1.04-1.613 1.9-3.594 2.578-5.938h-2.19zm17.58 12.89c-2.032-.78-3.778-1.72-5.235-2.812-1.406 1.145-3.28 2.16-5.625 3.047 0-.052-.027-.104-.078-.155-.417-.73-.78-1.303-1.094-1.72 2.292-.624 4.09-1.483 5.392-2.577-.99-1.145-1.85-2.604-2.578-4.375l1.72-.78c.675 1.56 1.43 2.84 2.265 3.827.78-.885 1.483-2.188 2.108-3.906l1.875.625c-.73 1.927-1.59 3.464-2.578 4.608 1.3.99 2.994 1.746 5.078 2.266-.105.207-.312.547-.625 1.016-.263.415-.47.727-.626.936zm-10.236-8.28c-.105-.105-.234-.26-.39-.47-.366-.47-.626-.78-.782-.938 1.354-1.094 2.682-2.37 3.984-3.828l1.405 1.25c-1.51 1.616-2.917 2.944-4.218 3.985zm-.47-5.626v-1.875h4.767v-2.656h1.953v2.655h4.844v1.875H112.76zm10.626 5.47c-1.406-1.302-2.812-2.58-4.22-3.83l1.25-1.25c1.563 1.25 2.943 2.45 4.142 3.595l-1.172 1.484zM128.587 253.33v-17.89h17.188v17.89h-1.953v-.858H130.54v.86h-1.953zm1.953-16.327v14.062h13.28v-14.062h-13.28zm1.875 8.906v-3.36h9.453v3.28c.05 0 .078-.024.078-.077h.078l1.016.938c-.574.42-1.172.86-1.797 1.33l2.03 1.015-.858 1.172c-1.25-.73-2.812-1.535-4.688-2.422l.78-1.094 1.485.704c.364-.26.885-.703 1.562-1.328.104-.05.182-.104.234-.156h-4.062c-.26.312-.52.547-.78.703v2.578h.233c.57-.05 1.274-.155 2.108-.31-.053.31-.078.702-.078 1.17-2.553.263-4.428.497-5.625.704l-.234-1.172c.626-.104 1.25-.182 1.876-.234v-1.484c-1.042.625-2.214 1.2-3.516 1.72-.053-.052-.13-.183-.234-.392-.26-.47-.47-.807-.625-1.016 1.927-.572 3.542-1.328 4.845-2.266h-3.28zm-.235-6.407v-1.172h4.062v-1.25h1.797v1.25h4.06v1.173h-4.06v1.016h5v1.17h-11.72v-1.17h4.922v-1.017h-4.062zm2.032 4.14v1.172h5.938v-1.172h-5.938zM160.82 240.362v2.578c.052 2.03-.807 3.516-2.577 4.453l-.703-.86c1.3-.78 1.953-1.847 1.953-3.202h-1.562v-2.968h2.89zM172.274 246.22c-.21-.624-.39-1.43-.547-2.42-.053-.105-.078-.183-.078-.235 1.82-2.76 3.202-5.754 4.14-8.984l2.188.548c-.574 1.562-1.172 3.074-1.797 4.53v13.595h-2.108v-9.766c-.575.99-1.173 1.902-1.798 2.734zm16.875-3.67c-.106 0-.262-.052-.47-.157-.73-.156-1.25-.26-1.562-.312l1.094-2.81h-7.188c-.574 1.198-1.303 2.448-2.188 3.75-.47-.47-1.016-.94-1.64-1.407 1.56-2.082 2.707-4.375 3.437-6.875l2.188.312c-.31.834-.624 1.59-.937 2.266h8.438v1.875l-1.17 3.36zm-10 7.89c-.522-.26-1.173-.547-1.954-.86.833-1.612 1.744-3.774 2.734-6.483l1.875.625c-.625 1.824-1.51 4.062-2.656 6.718zm1.015 2.656c-.105-.73-.234-1.406-.39-2.03h2.03c.833.05 1.223-.313 1.172-1.095v-9.296h2.11v9.766c.05 1.72-.782 2.578-2.5 2.578-.21 0-.6.025-1.173.078h-1.25zm8.515-2.734c-.053-.207-.156-.494-.312-.86-.938-2.5-1.693-4.4-2.266-5.702l1.953-.625c.73 1.824 1.614 3.984 2.656 6.484l-2.03.702zM194.118 238.643v-1.875h7.97v-2.188h2.187v2.188h7.97v1.875h-7.97v5.703c2.03 2.71 4.844 4.662 8.438 5.86-.47.624-.834 1.25-1.094 1.874-3.23-1.25-5.68-2.97-7.345-5.156v6.406h-2.188v-6.406c-1.77 2.188-4.193 3.96-7.266 5.312-.364-.625-.755-1.223-1.17-1.797 3.593-1.355 6.405-3.386 8.437-6.095v-5.703h-7.97zm5.86 6.72c-.522-.626-1.226-1.355-2.11-2.19-.625 1.044-1.433 2.085-2.422 3.126-.417-.47-.86-.94-1.328-1.407 1.666-1.562 2.786-3.41 3.36-5.547l1.952.234c-.053.312-.21.78-.47 1.406-.104.262-.182.443-.233.547.73.574 1.588 1.328 2.578 2.266l-1.328 1.562zm10.86.546c-.21-.208-.522-.52-.94-.94-.78-.83-1.405-1.456-1.874-1.874-.47.678-1.016 1.38-1.64 2.11-.47-.47-.94-.91-1.407-1.33 1.3-1.196 2.188-2.706 2.656-4.53l1.953.234c-.156.678-.39 1.328-.703 1.953.52.418 1.25 1.043 2.188 1.875.47.418.834.73 1.095.938l-1.328 1.563zM217.133 242.862l-.625-1.406h1.094c.78-.78 1.536-1.64 2.266-2.578-.21 0-.47.027-.78.078h-.626l-.625-1.406h1.484c1.46-.988 2.813-2.004 4.063-3.047l2.422.47c-.417.31-1.172.833-2.266 1.56-.575.42-.99.73-1.25.94 1.665 0 3.696-.052 6.093-.157l-1.64-1.094 1.405-.86c1.77 1.044 3.41 2.06 4.922 3.048l-1.562 1.016-1.172-.78c-2.97 0-5.99.052-9.062.155l-1.328.08 1.797.624-1.953 1.875 3.594-.157-1.172-1.016 1.328-.703c.104.105.26.234.47.39.624.522 1.093.94 1.405 1.25.78-.675 1.588-1.483 2.422-2.42l1.72.624c-.21.21-.575.547-1.095 1.016-.52.47-.886.81-1.094 1.016.73 0 1.822-.05 3.28-.156-.104-.156-.286-.338-.546-.547l-.312-.312 1.328-.78c.312.26.833.73 1.562 1.405.676.625 1.172 1.094 1.484 1.406l-1.406.938-.78-.86c-.522 0-1.33.028-2.423.08-1.094 0-1.875.026-2.344.077 1.72 1.095 4.193 1.954 7.423 2.58-.365.624-.625 1.224-.78 1.796-3.647-.832-6.538-2.135-8.673-3.906-1.98 1.562-4.844 2.865-8.594 3.906-.053-.156-.183-.416-.39-.78-.21-.47-.366-.808-.47-1.017 2.916-.573 5.39-1.458 7.422-2.657-1.303 0-2.683.053-4.14.156-.262 0-.575.026-.94.077-.415-.003-.727.024-.935.075zm.47 10.625c-.21-.574-.418-1.12-.626-1.64 5.416-.47 10.208-1.667 14.375-3.595l1.016 1.484c-4.48 1.98-9.402 3.23-14.766 3.75zm1.093-2.734c-.156-.416-.39-.86-.703-1.328 4.166-.676 7.812-1.72 10.938-3.125l1.017 1.172c-3.335 1.458-7.085 2.552-11.25 3.28zm.78-2.657c-.155-.312-.39-.73-.702-1.25 3.125-.73 5.703-1.535 7.734-2.422l1.016 1.172c-2.292.938-4.975 1.772-8.047 2.5zM250.852 241.065v-1.562h2.578v-2.188h-3.047v-1.72h4.922v11.407h1.094v1.797h-18.517V247h1.25v-10.78c1.197-.26 2.604-.677 4.22-1.25l.702 1.483c-1.094.418-2.11.73-3.047.938v1.953h2.89v1.64h-2.89v2.19h2.89v1.56h-2.89v2.267h3.75v-3.984h1.797v3.983h1.64v-5h-3.437v-7.188h1.875v1.953h3.36v1.64h-3.36v1.954h3.36v6.64h3.437v-2.187h-2.578v-1.562h2.578v-2.188h-2.578zm-11.875 12.266c-.156-.364-.47-.937-.938-1.718 1.925-.52 4.087-1.3 6.483-2.344l1.016 1.64c-.418.106-1.043.34-1.876.704-2.083.832-3.646 1.406-4.687 1.72zm16.485 0c-2.136-.937-4.375-1.718-6.72-2.343l.782-1.64c1.04.31 2.525.808 4.453 1.483l2.344.703-.858 1.798zM270.82 240.362v2.578c.052 2.03-.807 3.516-2.577 4.453l-.703-.86c1.3-.78 1.953-1.847 1.953-3.202h-1.562v-2.968h2.89zM281.65 244.815v-2.344h18.983v2.345H281.65zM305.524 253.33v-9.687c-.104.156-.26.418-.47.78-.416.73-.728 1.25-.937 1.563-.053-.156-.104-.39-.156-.703-.155-.938-.26-1.613-.31-2.03 1.25-2.292 2.265-5.157 3.046-8.595l1.953.39c-.313 1.46-.757 2.92-1.33 4.376v13.906h-1.796zm3.594 0v-17.655h12.812v17.656h-1.875v-.937h-9.062v.938h-1.875zm1.875-15.86v13.282h9.062v-13.28h-9.062zm.78 3.986v-1.562h2.892v-1.797h1.72v1.797h2.89v1.562h-2.89v1.953h2.187v5.702h-6.094v-5.703h2.188v-1.954h-2.892zm2.267 3.515v2.58h2.89v-2.58h-2.89zM327.133 253.41l-.78-1.954c.415-.053.78-.156 1.093-.312V235.44h15.703v6.484h-5.704c.104 1.043.234 1.953.39 2.734h6.642v1.953h-6.172c.416 1.407.963 2.554 1.64 3.44.522.677.99 1.015 1.407 1.015.416 0 .703-.338.86-1.016.103-.417.26-1.198.468-2.345.626.312 1.276.547 1.954.703-.21 1.2-.443 2.162-.703 2.89-.468 1.25-1.25 1.9-2.343 1.954-1.354 0-2.475-.625-3.36-1.875-.99-1.197-1.718-2.785-2.187-4.766h-6.406v4.063c1.927-.625 3.516-1.145 4.766-1.562v1.954c-2.137.573-4.56 1.355-7.267 2.345zm2.5-16.095v2.734h11.406v-2.735h-11.407zm6.016 7.344c-.157-.782-.262-1.692-.313-2.735h-5.703v2.734h6.015zM348.743 240.05v-2.032h16.875v2.03h-7.344v3.985h6.484v2.03h-6.484v4.376h8.125v1.952h-18.44v-1.953h8.126v-4.376h-6.484v-2.03h6.484v-3.985h-7.343zm7.89-2.032c-.417-1.145-.834-2.135-1.25-2.97l2.266-.468c.31.678.728 1.64 1.25 2.89l-2.267.548zM370.43 253.018v-15.312h2.11c.155-.572.363-1.354.624-2.344.052-.312.104-.547.156-.703l2.188.31c-.21.94-.47 1.85-.78 2.735h3.358v15.234h-1.953v-1.407h-3.672v1.484h-2.03zm2.032-13.36v4.063h3.672v-4.06h-3.672zm0 6.016v4.062h3.672v-4.062h-3.672zm8.515 7.266c-.104-.78-.234-1.434-.39-1.953h1.405c.677.053 1.197.078 1.562.078 1.406 0 2.11-.676 2.11-2.03.05-.833.103-2.605.155-5.313.05-1.926.077-3.28.077-4.062H381.6c-.47 1.043-.938 2.006-1.406 2.89-.104-.05-.26-.155-.47-.31-.26-.157-.702-.392-1.327-.704 1.197-2.188 2.135-4.48 2.812-6.875l2.108.47c-.053.21-.156.496-.312.86-.21.73-.417 1.302-.625 1.718h5.626c-.104 5.678-.21 9.584-.312 11.72.052 2.343-1.068 3.487-3.36 3.437-1.04.048-2.16.075-3.357.075zm1.64-5.234c-.885-1.354-1.85-2.734-2.89-4.14l1.64-1.017c.94 1.093 1.954 2.42 3.048 3.983l-1.797 1.173zM391.883 240.206v-1.875h2.266v-3.67h1.952v3.67h1.875v1.876h-1.875v1.797c.73.625 1.51 1.328 2.344 2.11l-1.094 1.56-1.25-1.405v9.062h-1.953v-8.984c-.782 2.03-1.46 3.516-2.032 4.453-.053-.26-.156-.704-.312-1.33-.104-.624-.21-1.065-.312-1.327 1.04-1.613 1.9-3.594 2.578-5.938h-2.19zm17.58 12.89c-2.032-.78-3.777-1.72-5.235-2.812-1.406 1.145-3.28 2.16-5.625 3.047 0-.052-.026-.104-.078-.155-.417-.73-.78-1.303-1.094-1.72 2.292-.624 4.09-1.483 5.392-2.577-.99-1.145-1.85-2.604-2.578-4.375l1.72-.78c.676 1.56 1.43 2.84 2.265 3.827.78-.885 1.483-2.188 2.108-3.906l1.875.625c-.73 1.927-1.59 3.464-2.578 4.608 1.302.99 2.994 1.746 5.078 2.266-.104.207-.312.547-.625 1.016-.262.415-.47.727-.626.936zm-10.236-8.28c-.104-.105-.234-.26-.39-.47-.366-.47-.626-.78-.782-.938 1.354-1.094 2.682-2.37 3.984-3.828l1.405 1.25c-1.51 1.616-2.916 2.944-4.218 3.985zm-.47-5.626v-1.875h4.767v-2.656h1.953v2.655h4.844v1.875H398.76zm10.626 5.47c-1.406-1.302-2.812-2.58-4.22-3.83l1.25-1.25c1.563 1.25 2.943 2.45 4.142 3.595l-1.172 1.484zM414.587 253.33v-17.89h17.188v17.89h-1.953v-.858H416.54v.86h-1.953zm1.953-16.327v14.062h13.28v-14.062h-13.28zm1.875 8.906v-3.36h9.453v3.28c.052 0 .078-.024.078-.077h.078l1.016.938c-.573.42-1.172.86-1.797 1.33l2.03 1.015-.858 1.172c-1.25-.73-2.812-1.535-4.688-2.422l.78-1.094 1.485.704c.364-.26.885-.703 1.562-1.328.104-.05.182-.104.234-.156h-4.062c-.26.312-.52.547-.78.703v2.578h.233c.57-.05 1.274-.155 2.108-.31-.053.31-.078.702-.078 1.17-2.553.263-4.428.497-5.625.704l-.234-1.172c.626-.104 1.25-.182 1.876-.234v-1.484c-1.042.625-2.214 1.2-3.516 1.72-.053-.052-.13-.183-.234-.392-.26-.47-.47-.807-.625-1.016 1.928-.572 3.542-1.328 4.845-2.266h-3.28zm-.235-6.407v-1.172h4.062v-1.25h1.797v1.25h4.06v1.173h-4.06v1.016h5v1.17h-11.72v-1.17h4.922v-1.017h-4.062zm2.032 4.14v1.172h5.938v-1.172h-5.938zM436.743 237.55v-2.032h16.875v2.03h-7.344v7.423h8.28v2.032h-8.28v6.328h-2.188v-6.328h-8.28v-2.03h8.28v-7.423h-7.343zm3.984 6.484c-1.094-1.406-2.24-2.785-3.438-4.14l1.56-1.25c1.25 1.302 2.423 2.655 3.517 4.06l-1.64 1.33zm8.594.078l-1.56-1.328c1.145-1.145 2.343-2.525 3.593-4.14l1.64 1.17c-1.198 1.513-2.422 2.944-3.672 4.298zM459.133 243.018l-1.016-2.03 2.11-.08c2.082-2.237 3.827-4.374 5.233-6.405l2.344 1.016c-1.042 1.25-2.656 3.02-4.844 5.31.99-.05 2.474-.128 4.453-.233 1.927-.05 3.385-.104 4.375-.156l-2.344-2.343 1.562-1.172c2.188 2.03 4.062 3.88 5.625 5.547l-1.718 1.328c-.156-.156-.39-.416-.703-.78l-.704-.704c-3.438.053-7.344.184-11.72.39-1.09.052-1.976.156-2.653.312zm.86 10.313v-8.75h14.375v8.75h-2.188v-1.17h-10.078v1.17h-2.11zm2.11-6.796v3.828h10.077v-3.828h-10.078zM485.977 244.034c.156-1.926 1.224-2.97 3.203-3.125 1.98.155 3.047 1.198 3.203 3.124-.156 1.98-1.225 3.047-3.203 3.203-1.98-.156-3.047-1.223-3.203-3.203zm1.25 0c.104 1.2.755 1.85 1.953 1.953 1.197-.104 1.85-.754 1.953-1.953-.104-1.145-.756-1.77-1.953-1.875-1.198.104-1.85.73-1.953 1.874z"/></g><path d="M108.51 106.568c0-36.784 19.514-69.007 48.752-86.89-15.446-9.45-33.604-14.896-53.035-14.896C48.012 4.782 2.44 50.352 2.44 106.568S48.013 208.355 104.23 208.355c19.432 0 37.59-5.448 53.035-14.895-29.238-17.884-48.752-50.108-48.752-86.892z" fill="#32ABE2"/><path d="M206.014 106.568c0-36.784-19.513-69.007-48.75-86.89-29.24 17.883-48.752 50.107-48.752 86.89 0 36.784 19.513 69.007 48.75 86.89 29.24-17.882 48.752-50.106 48.752-86.89z" fill="#7BCCEE"/><g fill="#32ABE2"><path d="M246.43 46.21h7.912V94c0 5.67.107 9.204.323 10.604.395 3.12 1.31 5.73 2.744 7.83s3.64 3.857 6.62 5.274c2.977 1.418 5.973 2.126 8.986 2.126 2.618 0 5.13-.556 7.534-1.67 2.403-1.11 4.413-2.653 6.028-4.627 1.614-1.973 2.798-4.36 3.552-7.158.538-2.01.807-6.136.807-12.38V46.21h7.91V94c0 7.07-.69 12.783-2.07 17.143-1.382 4.358-4.145 8.153-8.288 11.382-4.145 3.23-9.16 4.844-15.043 4.844-6.387 0-11.858-1.526-16.414-4.575-4.558-3.05-7.607-7.086-9.15-12.11-.968-3.084-1.452-8.645-1.452-16.683v-47.79zM311.55 66.823h8.018l19.654 42.683 19.417-42.683h8.072l-26.802 58.554h-1.398L311.55 66.823zM405.89 65.316c9.022 0 16.498 3.266 22.43 9.795 5.39 5.957 8.086 13.007 8.086 21.15 0 8.182-2.85 15.33-8.545 21.447-5.696 6.117-13.02 9.176-21.97 9.176-8.984 0-16.325-3.06-22.02-9.176-5.698-6.117-8.547-13.266-8.547-21.446 0-8.107 2.695-15.14 8.087-21.096 5.93-6.565 13.425-9.848 22.48-9.848zm-.025 7.373c-6.265 0-11.648 2.313-16.148 6.94-4.5 4.63-6.75 10.227-6.75 16.792 0 4.234 1.024 8.18 3.077 11.84 2.052 3.66 4.824 6.485 8.317 8.477 3.493 1.99 7.328 2.986 11.505 2.986 4.176 0 8.01-.996 11.503-2.987 3.492-1.992 6.265-4.817 8.317-8.478 2.052-3.66 3.08-7.605 3.08-11.84 0-6.565-2.26-12.162-6.78-16.79-4.52-4.628-9.892-6.943-16.12-6.943zM456.91 45.08h7.536v21.743h11.947v6.512h-11.947v52.042h-7.535V73.335h-10.277v-6.512h10.278V45.08zM536.992 105.95l6.35 3.335c-2.082 4.09-4.487 7.392-7.218 9.902-2.73 2.512-5.8 4.423-9.21 5.732-3.413 1.308-7.273 1.963-11.583 1.963-9.55 0-17.02-3.13-22.407-9.392-5.387-6.26-8.08-13.336-8.08-21.23 0-7.426 2.28-14.046 6.84-19.857 5.782-7.39 13.522-11.087 23.218-11.087 9.984 0 17.956 3.786 23.917 11.355 4.237 5.348 6.392 12.02 6.464 20.022h-52.687c.143 6.8 2.316 12.376 6.52 16.726 4.203 4.35 9.394 6.523 15.572 6.523 2.98 0 5.882-.517 8.702-1.554 2.82-1.036 5.217-2.413 7.192-4.128 1.975-1.715 4.113-4.485 6.412-8.31zm0-15.77c-1.006-4.02-2.47-7.23-4.392-9.634-1.923-2.403-4.464-4.34-7.625-5.812-3.16-1.47-6.484-2.206-9.968-2.206-5.748 0-10.688 1.848-14.818 5.543-3.02 2.69-5.3 6.73-6.844 12.11h43.646z"/></g><g fill="#32ABE2"><path d="M247.28 162.708v-3.375h4.077v-6.61h3.516v6.61h3.375v3.375h-3.375v3.234c1.312 1.125 2.718 2.39 4.22 3.797l-1.97 2.81-2.25-2.53v16.312h-3.516V170.16c-1.406 3.656-2.626 6.328-3.656 8.016-.094-.468-.28-1.266-.56-2.39-.19-1.126-.377-1.92-.563-2.392 1.874-2.904 3.42-6.47 4.64-10.688h-3.938zm31.64 23.203c-3.656-1.405-6.798-3.093-9.42-5.06-2.532 2.06-5.907 3.888-10.126 5.483 0-.095-.05-.19-.14-.28-.753-1.315-1.407-2.346-1.97-3.095 4.124-1.125 7.358-2.672 9.703-4.64-1.782-2.062-3.33-4.688-4.64-7.876l3.093-1.406c1.217 2.812 2.577 5.11 4.078 6.89 1.406-1.592 2.672-3.937 3.797-7.03l3.375 1.125c-1.314 3.47-2.86 6.237-4.64 8.298 2.34 1.782 5.39 3.143 9.14 4.078-.19.373-.562.984-1.125 1.828-.47.748-.844 1.31-1.125 1.687zm-18.422-14.905c-.19-.187-.422-.468-.703-.844-.657-.843-1.125-1.405-1.406-1.687 2.436-1.97 4.826-4.265 7.17-6.89l2.532 2.25c-2.72 2.907-5.252 5.298-7.594 7.172zm-.844-10.125v-3.375h8.578v-4.78h3.516v4.78h8.718v3.375h-20.812zm19.125 9.843c-2.532-2.342-5.063-4.64-7.594-6.89l2.25-2.25c2.812 2.25 5.294 4.407 7.453 6.468l-2.11 2.673zM291.745 186.333V154.13h30.938v32.203h-3.516v-1.547H295.26v1.547h-3.515zm3.515-29.39v25.31h23.906v-25.31H295.26zm3.375 16.03v-6.047h17.016v5.906c.093 0 .142-.046.142-.14h.14l1.83 1.687c-1.034.75-2.11 1.546-3.235 2.39l3.656 1.828-1.547 2.11c-2.25-1.313-5.062-2.765-8.438-4.36l1.406-1.97 2.672 1.267c.654-.468 1.593-1.266 2.812-2.39.187-.093.327-.188.422-.282h-7.312c-.47.562-.938.984-1.406 1.266v4.64h.422c1.03-.092 2.296-.28 3.797-.562-.094.562-.14 1.266-.14 2.11-4.595.47-7.97.892-10.125 1.265l-.422-2.11c1.125-.186 2.25-.326 3.375-.42v-2.673c-1.877 1.125-3.986 2.158-6.328 3.094-.095-.092-.235-.327-.422-.703-.47-.843-.844-1.45-1.125-1.827 3.467-1.03 6.374-2.39 8.72-4.078h-5.908zm-.42-11.53v-2.11h7.31v-2.25h3.235v2.25h7.312v2.11h-7.312v1.827h9v2.11h-21.094v-2.11h8.86v-1.828h-7.312zm3.655 7.452v2.11h10.688v-2.11H301.87zM335.507 172.27c-.28-.468-.844-1.217-1.688-2.25-.377-.468-.658-.844-.845-1.125 4.405-3.28 7.5-7.03 9.28-11.25l3.657 1.547c-2.624 5.252-6.094 9.61-10.405 13.078zm.704 12.516l-.983-3.375c.373 0 .936-.045 1.688-.14h1.547c3.656-5.062 6.842-10.266 9.562-15.61l3.938 1.83c-2.626 4.218-5.58 8.718-8.86 13.5l14.345-.845c-.657-.844-1.596-2.015-2.812-3.516-.844-1.218-1.5-2.11-1.97-2.673l2.954-1.97c1.687 2.064 4.31 5.3 7.874 9.704.936 1.03 1.64 1.83 2.11 2.392l-3.376 2.25-2.39-3.094c-3.565.187-9.096.562-16.595 1.125l-7.032.423zm29.11-13.78c-5.533-3.657-9.422-8.344-11.672-14.063h-8.72v-2.953h11.532c2.342 5.814 6.093 10.266 11.25 13.36-.095.094-.235.28-.422.56-.843 1.407-1.5 2.44-1.968 3.095zM377.02 162.567v-3.516h3.937v-6.187h3.375v6.188h3.797v3.517h-3.798v6.047l3.516-.703c-.095 1.407-.095 2.58 0 3.517l-3.516.844v9.563c.092 2.718-1.08 4.078-3.516 4.078-.844.093-1.97.142-3.375.142-.094-.752-.234-1.736-.42-2.953-.096-.377-.142-.612-.142-.704h2.39c1.218.092 1.78-.422 1.69-1.547v-7.595l-4.22 1.125-.28-3.938c1.405-.28 2.903-.608 4.5-.984v-6.89h-3.94zm31.78 23.484c-4.408-1.22-7.83-2.58-10.266-4.077-2.72 1.78-6.188 3.234-10.406 4.36-.19-.377-.47-.94-.844-1.69-.47-.75-.798-1.313-.984-1.687 3.748-.75 6.89-1.874 9.422-3.375-2.158-1.968-3.938-4.545-5.344-7.733l1.547-.844h-2.39v-3.234h18.42v3.374c-1.5 3.375-3.61 6.236-6.327 8.578 2.53 1.406 5.576 2.39 9.14 2.953-.375.562-.937 1.498-1.687 2.812-.093.283-.188.47-.28.564zm-19.546-19.264c-.657-1.03-1.314-2.015-1.97-2.953 3.187-1.217 4.642-3.42 4.36-6.61v-3.093h12.516v5.625c-.095 1.314.422 1.923 1.547 1.828h.562c.748.095 1.17-.373 1.265-1.406v-.422c.187-.654.28-1.406.28-2.25.282.095.704.235 1.267.422.75.376 1.312.61 1.688.703-.095.938-.235 1.97-.422 3.094-.47 2.25-1.642 3.375-3.516 3.375h-2.25c-2.44 0-3.656-1.453-3.656-4.36v-3.234h-6.047c.28 4.5-1.597 7.592-5.626 9.28zm14.625 4.22h-10.126c1.312 2.625 2.953 4.83 4.922 6.608 2.34-1.97 4.078-4.17 5.203-6.61zM421.626 157.926v-3.656H452v3.656h-13.218v13.36h14.906v3.655h-14.906v11.392h-3.938v-11.39h-14.906v-3.657h14.906v-13.36h-13.218zm7.172 11.672c-1.97-2.53-4.032-5.014-6.188-7.453l2.812-2.25c2.25 2.345 4.36 4.78 6.328 7.312l-2.952 2.39zm15.468.14l-2.812-2.39c2.06-2.06 4.22-4.546 6.47-7.453l2.952 2.11c-2.16 2.72-4.36 5.297-6.61 7.734zM465.53 167.77l-1.83-3.656 3.798-.14c3.748-4.03 6.89-7.876 9.422-11.532l4.22 1.828c-1.878 2.25-4.782 5.438-8.72 9.562 1.78-.092 4.45-.232 8.016-.422 3.467-.092 6.093-.187 7.875-.28l-4.218-4.22 2.812-2.11c3.938 3.657 7.312 6.986 10.125 9.985l-3.095 2.39c-.28-.28-.703-.748-1.266-1.405l-1.267-1.266c-6.188.095-13.22.33-21.094.703-1.97.095-3.564.282-4.78.563zm1.546 18.563v-15.75h25.875v15.75h-3.937v-2.11h-18.14v2.11h-3.797zm3.797-12.235v6.89h18.14v-6.89h-18.14z"/></g><path d="M104.07 64.745l-30.292 57.957v.946c0 8.777 2.998 16.228 8.997 22.35 5.998 6.126 13.1 9.188 21.31 9.188 5.24 0 10.022-1.2 14.348-3.6 4.324-2.4 8.112-6.092 11.365-11.08 3.25-4.988 4.877-10.608 4.877-16.86v-1.06L104.83 64.744h-.76z" fill="none"/><path d="M153.43 50.296c-.823-.725-2.18-1.09-4.074-1.09h-29.36c-1.894 0-3.253.365-4.073 1.09-.82.727-1.23 1.69-1.23 2.89 0 1.2.41 2.162 1.23 2.888.82.727 2.178 1.09 4.073 1.09h14.68v43.554L112.08 56.79H97.203L73.78 101.575V57.163h14.68c1.893 0 3.25-.362 4.072-1.09.82-.724 1.23-1.688 1.23-2.888s-.41-2.162-1.23-2.89c-.82-.724-2.178-1.088-4.073-1.088H59.1c-1.895 0-3.22.317-3.98.947-.884.82-1.325 1.832-1.325 3.03 0 1.2.41 2.164 1.23 2.89.82.727 2.18 1.09 4.074 1.09h6.723v66.485c0 3.933.53 7.688 1.57 11.273.96 3.32 2.355 6.494 4.208 9.514 3.85 6.283 8.524 10.972 14.018 14.065 5.493 3.093 11.775 4.64 18.847 4.64 10.543 0 19.54-3.787 26.992-11.365 4.74-4.82 7.965-10.372 9.69-16.648.986-3.59 1.486-7.415 1.486-11.48V57.162h6.724c1.894 0 3.25-.362 4.073-1.09.82-.724 1.23-1.688 1.23-2.888s-.412-2.162-1.23-2.89zm-18.754 73.353c0 6.25-1.626 11.87-4.877 16.857-3.254 4.988-7.042 8.682-11.366 11.08-4.326 2.4-9.108 3.6-14.35 3.6-8.207 0-15.31-3.06-21.308-9.186-6-6.123-8.997-13.574-8.997-22.35v-.946l30.29-57.957h.763l29.844 57.844v1.06zM178.836 157.82c-.55-.662-1.25-1.135-2.1-1.42-.845-.283-2.244-.426-4.196-.426h-8.266l-17.468-33.4v8.016c0 3.66-.465 7.162-1.365 10.52l7.77 14.864H55.244l7.77-14.865c-.9-3.358-1.366-6.86-1.366-10.52v-8.015l-17.468 33.4h-8.266c-1.95 0-3.35.14-4.197.426-.85.285-1.548.76-2.1 1.42-.55.664-.826 1.374-.826 2.132s.275 1.468.828 2.13c.55.664 1.25 1.137 2.1 1.42.845.286 2.244.428 4.196.428h136.624c1.95 0 3.35-.142 4.197-.427.85-.284 1.548-.758 2.1-1.42.55-.663.826-1.373.826-2.13 0-.76-.275-1.47-.827-2.132z" fill="#fff"/><circle cx="405.472" cy="97.06" r="13.498" fill="#EAB628"/></svg>